<svg xmlns="http://www.w3.org/2000/svg" xmlns:svg="http://www.w3.org/2000/svg" id="svg9724" width="600" height="600" version="1.1" viewBox="0 0 600 600"><g id="g10449" transform="matrix(0.95173205,0,0,0.95115787,13.901174,12.168794)" style="stroke-width:1.05103"><path style="color:#000;fill:#fff;stroke-width:1.05104;stroke-linecap:square;stroke-linejoin:round;-inkscape-stroke:none;paint-order:stroke fill markers" id="path1237" d="m 116.82051,533.90848 c 0,-35.77923 -30.001428,-65.78273 -65.71225,-65.78274 -35.710867,10e-6 -65.714445,30.00351 -65.714445,65.78274 0,35.7791 30.003578,65.78265 65.714445,65.78265 35.710822,0 65.71225,-30.00355 65.71225,-65.78265 z"/><path style="color:#000;fill:#fff;stroke-width:1.05104;stroke-linecap:square;stroke-linejoin:round;-inkscape-stroke:none;paint-order:stroke fill markers" id="path1235" d="m 116.82051,302.6125 c 0,-35.77918 -30.001428,-65.78266 -65.71225,-65.78267 -35.710867,1e-5 -65.714445,30.00349 -65.714445,65.78267 2.6e-5,35.77922 30.003597,65.78043 65.714445,65.78045 35.710806,-2e-5 65.71224,-30.00123 65.71225,-65.78045 z"/><path style="color:#000;fill:#fff;stroke-width:1.05104;stroke-linecap:square;stroke-linejoin:round;-inkscape-stroke:none;paint-order:stroke fill markers" id="path346" d="m 116.82051,71.313209 c 0,-35.779199 -30.001428,-65.7804582 -65.71225,-65.7804662 -35.710867,8e-6 -65.714445,30.0012672 -65.714445,65.7804662 0,35.779271 30.003578,65.782741 65.714445,65.782751 35.710822,-1e-5 65.71225,-30.00348 65.71225,-65.782751 z"/><path style="color:#000;fill:#fff;stroke-width:1.05103;stroke-linecap:round;-inkscape-stroke:none" id="path1011" d="m 211.58808,21.527961 a 47.572886,49.785578 0 0 0 -47.57256,49.787552 47.572886,49.785578 0 0 0 47.57256,49.785227 H 568.24859 A 47.572886,49.785578 0 0 0 615.82336,71.315513 47.572886,49.785578 0 0 0 568.24859,21.527961 Z"/><path style="color:#000;fill:#fff;stroke-width:1.05103;stroke-linecap:round;-inkscape-stroke:none" id="path1011-7" d="m 211.58808,252.82616 a 47.572886,49.785578 0 0 0 -47.57256,49.78524 47.572886,49.785578 0 0 0 47.57256,49.78523 h 356.66051 a 47.572886,49.785578 0 0 0 47.57477,-49.78523 47.572886,49.785578 0 0 0 -47.57477,-49.78524 z"/><path style="color:#000;fill:#fff;stroke-width:1.05103;stroke-linecap:round;-inkscape-stroke:none" id="path1011-5" d="m 211.58808,484.1232 a 47.572886,49.785578 0 0 0 -47.57256,49.78523 47.572886,49.785578 0 0 0 47.57256,49.78524 h 356.66051 a 47.572886,49.785578 0 0 0 47.57477,-49.78524 47.572886,49.785578 0 0 0 -47.57477,-49.78523 z"/></g></svg>